<svg width="47" height="46" viewBox="0 0 47 46" fill="none" xmlns="http://www.w3.org/2000/svg">
<circle cx="21" cy="25" r="21" fill="#E73834"/>
<circle cx="21" cy="25" r="15" fill="#FEFDEA"/>
<circle cx="21" cy="25" r="9" fill="#E73834"/>
<circle cx="21" cy="25" r="3" fill="#FEFDEA"/>
<path d="M31.8699 2.92893C33.4875 1.31133 36.1102 1.31133 37.7278 2.92893C38.1162 3.31733 38.3344 3.84412 38.3344 4.3934V7.77817L29.142 16.9706L29.7834 6.06596C29.8257 5.34692 30.1304 4.66841 30.6397 4.1591L31.8699 2.92893Z" fill="#1ABDD4"/>
<path d="M43.1836 14.2426C44.8012 12.625 44.8012 10.0024 43.1836 8.38478C42.7952 7.99638 42.2684 7.77817 41.7191 7.77817H38.3344L29.142 16.9706L40.0466 16.3291C40.7656 16.2868 41.4441 15.9821 41.9534 15.4728L43.1836 14.2426Z" fill="#34A5DD"/>
<path d="M34.8898 8.57074C35.6069 7.75808 36.8609 7.71893 37.6273 8.48528C38.3936 9.25164 38.3545 10.5057 37.5418 11.2227L21.0102 25.8094L20.3031 25.1023L34.8898 8.57074Z" fill="#2287C9"/>
</svg>
