<svg width="33" height="21" viewBox="0 0 33 21" fill="none" xmlns="http://www.w3.org/2000/svg">
<path d="M22.333 9.04199C24.7538 9.04199 26.6934 7.08783 26.6934 4.66699C26.6934 2.24616 24.7538 0.291992 22.333 0.291992C19.9122 0.291992 17.958 2.24616 17.958 4.66699C17.958 7.08783 19.9122 9.04199 22.333 9.04199ZM10.6663 9.04199C13.0872 9.04199 15.0268 7.08783 15.0268 4.66699C15.0268 2.24616 13.0872 0.291992 10.6663 0.291992C8.24551 0.291992 6.29134 2.24616 6.29134 4.66699C6.29134 7.08783 8.24551 9.04199 10.6663 9.04199ZM10.6663 11.9587C7.26843 11.9587 0.458008 13.6649 0.458008 17.0628V20.7087H20.8747V17.0628C20.8747 13.6649 14.0643 11.9587 10.6663 11.9587ZM22.333 11.9587C21.9101 11.9587 21.4288 11.9878 20.9184 12.0316C22.6101 13.2566 23.7913 14.9045 23.7913 17.0628V20.7087H32.5413V17.0628C32.5413 13.6649 25.7309 11.9587 22.333 11.9587Z" fill="white" fill-opacity="0.5"/>
</svg>
