<svg width="34" height="21" viewBox="0 0 34 21" fill="none" xmlns="http://www.w3.org/2000/svg">
<path d="M22.833 9.04199C25.2538 9.04199 27.1934 7.08783 27.1934 4.66699C27.1934 2.24616 25.2538 0.291992 22.833 0.291992C20.4122 0.291992 18.458 2.24616 18.458 4.66699C18.458 7.08783 20.4122 9.04199 22.833 9.04199ZM11.1663 9.04199C13.5872 9.04199 15.5268 7.08783 15.5268 4.66699C15.5268 2.24616 13.5872 0.291992 11.1663 0.291992C8.74551 0.291992 6.79134 2.24616 6.79134 4.66699C6.79134 7.08783 8.74551 9.04199 11.1663 9.04199ZM11.1663 11.9587C7.76843 11.9587 0.958008 13.6649 0.958008 17.0628V20.7087H21.3747V17.0628C21.3747 13.6649 14.5643 11.9587 11.1663 11.9587ZM22.833 11.9587C22.4101 11.9587 21.9288 11.9878 21.4184 12.0316C23.1101 13.2566 24.2913 14.9045 24.2913 17.0628V20.7087H33.0413V17.0628C33.0413 13.6649 26.2309 11.9587 22.833 11.9587Z" fill="white"/>
</svg>
