<svg width="29" height="29" viewBox="0 0 29 29" fill="none" xmlns="http://www.w3.org/2000/svg">
<path d="M24.9132 15.8708C24.9716 15.4333 25.0007 14.9812 25.0007 14.5C25.0007 14.0333 24.9716 13.5667 24.8986 13.1292L27.8591 10.825C28.1216 10.6208 28.1945 10.2271 28.0341 9.93542L25.2341 5.09375C25.0591 4.77292 24.6945 4.67083 24.3736 4.77292L20.8882 6.17292C20.1591 5.61875 19.3861 5.15208 18.5257 4.80208L18.0007 1.09792C17.9424 0.747916 17.6507 0.5 17.3007 0.5H11.7007C11.3507 0.5 11.0736 0.747916 11.0153 1.09792L10.4903 4.80208C9.6299 5.15208 8.8424 5.63333 8.12781 6.17292L4.6424 4.77292C4.32156 4.65625 3.95698 4.77292 3.78198 5.09375L0.996563 9.93542C0.821563 10.2417 0.879896 10.6208 1.17156 10.825L4.13198 13.1292C4.05906 13.5667 4.00073 14.0479 4.00073 14.5C4.00073 14.9521 4.0299 15.4333 4.10281 15.8708L1.1424 18.175C0.879896 18.3792 0.80698 18.7729 0.967396 19.0646L3.7674 23.9062C3.9424 24.2271 4.30698 24.3292 4.62781 24.2271L8.11323 22.8271C8.8424 23.3812 9.61531 23.8479 10.4757 24.1979L11.0007 27.9021C11.0736 28.2521 11.3507 28.5 11.7007 28.5H17.3007C17.6507 28.5 17.9424 28.2521 17.9861 27.9021L18.5111 24.1979C19.3716 23.8479 20.1591 23.3812 20.8736 22.8271L24.3591 24.2271C24.6799 24.3438 25.0445 24.2271 25.2195 23.9062L28.0195 19.0646C28.1945 18.7437 28.1216 18.3792 27.8445 18.175L24.9132 15.8708ZM14.5007 19.75C11.6132 19.75 9.25073 17.3875 9.25073 14.5C9.25073 11.6125 11.6132 9.25 14.5007 9.25C17.3882 9.25 19.7507 11.6125 19.7507 14.5C19.7507 17.3875 17.3882 19.75 14.5007 19.75Z" fill="white" fill-opacity="0.5"/>
</svg>
