<svg width="28" height="26" viewBox="0 0 28 26" fill="none" xmlns="http://www.w3.org/2000/svg">
<path fill-rule="evenodd" clip-rule="evenodd" d="M27.125 3.60384V0.833008H0.875V3.60384H0.88415L0.986253 4.42066C1.17415 5.92388 1.57795 7.39212 2.18515 8.78001L2.33423 9.12076C2.71821 9.99844 3.18147 10.8392 3.71824 11.6327L4.6406 12.9962L5.61564 14.5129C5.78227 14.7722 5.91586 15.0512 6.01331 15.3435C6.09999 15.6035 6.1575 15.8724 6.18477 16.1452L6.20371 16.3345L8.52546 16.1023L8.50653 15.913C8.47984 15.6461 8.4354 15.3815 8.37358 15.1209C8.66789 15.8587 9.0221 16.5714 9.4328 17.252L11.2292 20.2288H12.6875V22.8538H7.14583V25.4788H20.8542V22.8538H15.3125V20.2288H16.7708L18.3792 17.7014C18.8411 16.9756 19.2375 16.2109 19.5641 15.4163C19.5337 15.5807 19.5101 15.7464 19.4935 15.913L19.4745 16.1023L21.7963 16.3345L21.8152 16.1452C21.8425 15.8724 21.9 15.6035 21.9867 15.3435C22.0841 15.0512 22.2177 14.7722 22.3844 14.5129L23.3594 12.9962L24.2818 11.6327C24.8185 10.8392 25.2818 9.99844 25.6658 9.12076L25.8148 8.78001C26.4221 7.39212 26.8258 5.92388 27.0137 4.42066L27.1158 3.60384H27.125ZM20.2055 13.6147C20.2732 13.4912 20.3453 13.3699 20.4216 13.2512L21.4114 11.7115L22.3491 10.3253C22.8063 9.64941 23.201 8.93317 23.5281 8.18552L23.6771 7.84477C24.1944 6.66249 24.5384 5.41176 24.6984 4.13125L24.7644 3.60384H21.875L20.9683 10.4948C20.8439 11.4402 20.6271 12.3711 20.321 13.2742L20.2055 13.6147ZM7.74111 13.379L7.89062 13.7976C7.79621 13.6103 7.69201 13.4279 7.57839 13.2512L6.58857 11.7115L5.6509 10.3253C5.19365 9.64941 4.79902 8.93317 4.47193 8.18552L4.32285 7.84477C3.8056 6.66249 3.46163 5.41176 3.30157 4.13125L3.23564 3.60384H6.125L7.01614 10.3765C7.15083 11.4002 7.39385 12.4066 7.74111 13.379Z" fill="white" fill-opacity="0.5"/>
</svg>
