<svg width="24" height="24" viewBox="0 0 24 24" fill="none" xmlns="http://www.w3.org/2000/svg">
<g clip-path="url(#clip0_2550_3575)">
<path fill-rule="evenodd" clip-rule="evenodd" d="M24 4V5.68639H23.9944L23.9322 6.18353C23.8177 7.09842 23.5715 7.99202 23.2014 8.83672L23.1106 9.04411C22.8765 9.57828 22.5942 10.09 22.267 10.573L21.7048 11.4028L21.1105 12.3259C21.0089 12.4837 20.9275 12.6535 20.8681 12.8314C20.8152 12.9897 20.7802 13.1533 20.7636 13.3193L20.752 13.4346L19.3369 13.2933L19.3484 13.178C19.3586 13.0766 19.3729 12.9758 19.3915 12.8757C19.1924 13.3593 18.9508 13.8247 18.6692 14.2664L17.6889 15.8047H16.8V17.4024H20.1778V19H11.8222V17.4024H15.2V15.8047H14.3111L13.2162 13.993C12.9659 13.5787 12.75 13.1449 12.5706 12.6959C12.6082 12.8545 12.6353 13.0156 12.6516 13.178L12.6631 13.2933L11.248 13.4346L11.2364 13.3193C11.2198 13.1533 11.1848 12.9897 11.1319 12.8314C11.0725 12.6535 10.9911 12.4837 10.8895 12.3259L10.2952 11.4028L9.73302 10.573C9.40585 10.09 9.12348 9.57828 8.88943 9.04411L8.79857 8.83672C8.42846 7.99202 8.18234 7.09842 8.06781 6.18353L8.00558 5.68639H8V4H24ZM19.9141 11.558C19.8676 11.6302 19.8237 11.704 19.7824 11.7792L19.8528 11.572C20.0394 11.0224 20.1715 10.4558 20.2473 9.8804L20.8 5.68639H22.5611L22.5209 6.00738C22.4234 6.78673 22.2137 7.54795 21.8985 8.26751L21.8076 8.4749C21.6082 8.92994 21.3677 9.36586 21.089 9.77725L20.5174 10.6209L19.9141 11.558ZM12.2762 11.8905L12.1851 11.6357C11.9734 11.044 11.8253 10.4314 11.7432 9.80839L11.2 5.68639H9.43887L9.47905 6.00738C9.57661 6.78673 9.78627 7.54795 10.1015 8.26751L10.1924 8.4749C10.3918 8.92994 10.6323 9.36586 10.911 9.77725L11.4826 10.6209L12.0859 11.558C12.1551 11.6655 12.2186 11.7766 12.2762 11.8905ZM5 8.99983V11.9998H8V13.9998H5V16.9998H3V13.9998H0V11.9998H3V8.99983H5Z" fill="white"/>
</g>
<defs>
<clipPath id="clip0_2550_3575">
<rect width="24" height="24" fill="white"/>
</clipPath>
</defs>
</svg>
