<svg width="27" height="26" viewBox="0 0 27 26" fill="none" xmlns="http://www.w3.org/2000/svg">
<path fill-rule="evenodd" clip-rule="evenodd" d="M26.625 3.60384V0.833008H0.375V3.60384H0.38415L0.486253 4.42066C0.674154 5.92388 1.07795 7.39212 1.68515 8.78001L1.83423 9.12076C2.21821 9.99844 2.68147 10.8392 3.21824 11.6327L4.1406 12.9962L5.11564 14.5129C5.28227 14.7722 5.41586 15.0512 5.51331 15.3435C5.59999 15.6035 5.6575 15.8724 5.68477 16.1452L5.70371 16.3345L8.02546 16.1023L8.00653 15.913C7.97984 15.6461 7.9354 15.3815 7.87358 15.1209C8.16789 15.8587 8.5221 16.5714 8.9328 17.252L10.7292 20.2288H12.1875V22.8538H6.64583V25.4788H20.3542V22.8538H14.8125V20.2288H16.2708L17.8792 17.7014C18.3411 16.9756 18.7375 16.2109 19.0641 15.4163C19.0337 15.5807 19.0101 15.7464 18.9935 15.913L18.9745 16.1023L21.2963 16.3345L21.3152 16.1452C21.3425 15.8724 21.4 15.6035 21.4867 15.3435C21.5841 15.0512 21.7177 14.7722 21.8844 14.5129L22.8594 12.9962L23.7818 11.6327C24.3185 10.8392 24.7818 9.99844 25.1658 9.12076L25.3148 8.78001C25.9221 7.39212 26.3258 5.92388 26.5137 4.42066L26.6158 3.60384H26.625ZM19.7055 13.6147C19.7732 13.4912 19.8453 13.3699 19.9216 13.2512L20.9114 11.7115L21.8491 10.3253C22.3063 9.64941 22.701 8.93317 23.0281 8.18552L23.1771 7.84477C23.6944 6.66249 24.0384 5.41176 24.1984 4.13125L24.2644 3.60384H21.375L20.4683 10.4948C20.3439 11.4402 20.1271 12.3711 19.821 13.2742L19.7055 13.6147ZM7.24111 13.379L7.39062 13.7976C7.29621 13.6103 7.19201 13.4279 7.07839 13.2512L6.08857 11.7115L5.1509 10.3253C4.69365 9.64941 4.29902 8.93317 3.97193 8.18552L3.82285 7.84477C3.3056 6.66249 2.96163 5.41176 2.80157 4.13125L2.73564 3.60384H5.625L6.51614 10.3765C6.65083 11.4002 6.89385 12.4066 7.24111 13.379Z" fill="white"/>
</svg>
